<svg width="1800" height="1800" viewBox="0 0 1800 1800" fill="none" xmlns="http://www.w3.org/2000/svg">
<path d="M1316.16 1561.08C1228.96 1625.48 1067.32 1664.24 993.156 1677.08C952.156 1677.08 957.156 1647.58 984.661 1626.58C996.052 1617.88 994.156 1618.08 1020.66 1585.58C1047.16 1553.08 1045.66 1423.08 1020.66 1357.58C1003.66 1292.08 913.156 1126.58 878.156 1084.08C867.655 1067.08 766.656 926.578 740.156 905.076C726.656 887.576 626.656 766.076 619.656 750.576C606.156 735.076 517.156 609.576 490.656 530.076C453.656 454.076 466.656 344.076 490.656 304.076C465.656 317.576 366.156 431.576 357.156 449.076C346.656 460.076 265.656 588.576 257.156 640.576C229.656 682.576 203.656 858.576 213.656 921.076C208.656 982.576 247.156 1137.08 276.156 1172.08C282.656 1210.58 376.156 1345.58 413.156 1371.58C433.156 1401.58 542.656 1471.58 605.656 1498.58C668.656 1525.58 743.156 1538.08 729.156 1455.08C715.156 1372.08 604.656 1248.08 592.156 1223.58C579.656 1199.08 436.656 1042.08 425.656 1025.08C414.656 1008.08 329.656 908.076 303.656 832.076C277.656 756.076 280.156 704.076 297.656 624.576C311.656 560.976 356.49 498.743 377.156 475.576C404.156 433.576 452.156 408.576 431.156 503.078C414.528 577.908 557.156 751.076 559.656 766.076C562.156 781.076 804.656 1057.58 835.156 1126.58C896.155 1195.57 984.661 1388.08 984.661 1479.58C984.661 1571.08 940.656 1611.08 912.156 1633.58C883.656 1656.08 804.656 1680.08 689.156 1653.58C573.656 1627.07 443.156 1530.08 393.156 1491.08C343.156 1452.08 303.156 1402.58 254.156 1336.08C205.156 1269.58 149.157 1134.08 141.157 1078.58C133.157 1023.08 106.657 936.576 131.157 770.076C155.657 603.576 232.157 494.076 288.657 414.076C345.157 334.076 491.657 225.576 571.657 192.079C624.857 157.281 745.824 132.579 799.657 124.578C835.157 116.576 853.657 140.579 835.157 161.078C805.477 193.966 814.658 175.078 781.158 215.078C747.658 255.078 755.158 383.078 774.158 427.078C775.158 471.078 860.658 623.078 888.658 669.578C910.158 719.578 1035.66 860.578 1044.16 883.078C1060.16 895.578 1141.16 1005.08 1149.16 1012.58C1157.16 1020.08 1257.66 1163.58 1278.16 1204.08C1303.16 1243.08 1328.16 1353.58 1331.66 1373.58C1335.16 1393.58 1328.16 1459.58 1309.16 1495.58C1324.66 1485.08 1385.16 1430.58 1440.66 1357.58C1496.16 1284.58 1551.16 1155.08 1568.66 1082.58C1586.16 1010.08 1588.66 908.078 1581.16 829.078C1573.66 750.078 1549.16 694.578 1533.66 651.078C1518.16 607.578 1485.66 559.579 1453.66 509.078C1421.66 458.578 1369.16 416.078 1338.66 389.578C1308.16 363.078 1245.16 325.078 1206.16 311.078C1154.66 277.578 1088.16 282.078 1078.16 291.079C1068.16 300.079 1066.16 316.078 1070.16 350.078C1074.16 384.078 1099.16 416.578 1108.16 434.578C1115.16 454.078 1166.16 519.078 1171.66 531.578C1177.16 544.078 1267.66 652.578 1282.66 669.578C1294.66 683.178 1357.99 760.911 1388.16 798.078C1407.49 824.578 1450.46 885.078 1467.66 915.078C1489.16 952.578 1506.66 1027.08 1512.16 1057.58C1517.66 1088.08 1510.66 1146.58 1498.16 1185.58C1485.66 1224.58 1474.16 1248.08 1465.66 1269.08C1458.86 1285.88 1416.49 1345.74 1396.16 1373.58C1387.49 1377.08 1367.96 1379.88 1359.16 1363.08C1363.66 1341.58 1368.66 1304.08 1363.16 1260.58C1357.66 1217.08 1303.66 1133.08 1257.66 1062.58C1211.66 992.078 1162.66 938.078 1155.66 926.578C1148.66 915.078 1076.66 830.578 1056.66 805.578C1036.66 780.578 942.158 647.078 932.158 630.578C924.158 617.378 881.158 540.078 860.658 503.078C850.325 479.745 827.561 423.078 819.161 383.078C808.661 333.078 811.161 303.578 822.661 253.078C834.161 202.578 890.161 165.579 923.661 150.579C957.161 135.579 1027.66 134.579 1067.66 140.579C1107.66 146.579 1186.66 174.579 1227.66 192.079C1268.66 209.579 1348.16 261.579 1384.66 291.079C1421.16 320.579 1498.66 402.579 1518.16 427.079C1537.66 451.579 1585.66 534.079 1601.16 559.579C1616.66 585.079 1657.66 717.578 1661.16 735.578C1666.16 751.078 1679.16 864.578 1679.16 882.578C1679.16 900.578 1671.16 1039.58 1653.16 1092.08C1645.16 1146.58 1590.66 1263.08 1562.16 1315.08C1533.66 1367.08 1425.16 1480.58 1316.16 1561.08Z" fill="url(#paint0_linear_1865_45)"/>
<defs>
<linearGradient id="paint0_linear_1865_45" x1="900.081" y1="123" x2="900.081" y2="1677.08" gradientUnits="userSpaceOnUse">
<stop stop-color="#AE32FF"/>
<stop offset="1" stop-color="#2BCBFF"/>
</linearGradient>
</defs>
</svg>
